<svg xmlns="http://www.w3.org/2000/svg" version="1.1" xmlns:xlink="http://www.w3.org/1999/xlink" xmlns:svgjs="http://svgjs.dev/svgjs" width="128" height="128" viewBox="0 0 128 128"><g transform="matrix(0.8046875,0,0,0.8046875,12.760752631578946,30.74128674251046)"><svg viewBox="0 0 95 62" data-background-color="#1f0f53" preserveAspectRatio="xMidYMid meet" height="83" width="128" xmlns="http://www.w3.org/2000/svg" xmlns:xlink="http://www.w3.org/1999/xlink"><g id="tight-bounds" transform="matrix(1,0,0,1,-0.24049999999999727,-0.1260792593944302)"><svg viewBox="0 0 95.481 62.252158518788875" height="62.252158518788875" width="95.481"><g><svg viewBox="0 0 95.481 62.252158518788875" height="62.252158518788875" width="95.481"><g><svg viewBox="0 0 95.481 62.252158518788875" height="62.252158518788875" width="95.481"><g id="textblocktransform"><svg viewBox="0 0 95.481 62.252158518788875" height="62.252158518788875" width="95.481" id="textblock"><g><svg viewBox="0 0 95.481 62.252158518788875" height="62.252158518788875" width="95.481"><g><svg viewBox="0 0 95.481 62.252158518788875" height="62.252158518788875" width="95.481"><g><svg xmlns:x="http://ns.adobe.com/Extensibility/1.0/" xmlns:i="http://ns.adobe.com/AdobeIllustrator/10.0/" xmlns:graph="http://ns.adobe.com/Graphs/1.0/" xmlns="http://www.w3.org/2000/svg" xmlns:xlink="http://www.w3.org/1999/xlink" xmlns:a="http://ns.adobe.com/AdobeSVGViewerExtensions/3.0/" version="1.1" x="0" y="0" viewBox="0 17.40189328022179 99.99745425263468 65.19681793875591" enable-background="new 0 0 100 100" xml:space="preserve" height="62.252158518788875" width="95.481" class="icon-icon-0" data-fill-palette-color="accent" id="icon-0"><path d="M70.79 38.18L76.248 28.721 61.355 20.122C51.655 14.523 39.23 17.843 33.626 27.552L36.876 29.429C39.459 24.945 45.193 23.409 49.68 25.997L54.547 28.805 42.822 49.115 41.2 48.181 26.199 74.158A5.624 5.624 0 0 0 28.256 81.842 5.62 5.62 0 0 0 35.944 79.781L50.939 53.805 49.322 52.868 61.046 32.558z" fill="#ff5db2" data-fill-palette-color="accent"></path><path d="M20.633 63.435C20.16 63.435 19.683 63.315 19.249 63.066L1.389 52.754C0.527 52.257 0 51.34 0 50.347S0.527 48.437 1.389 47.941L19.249 37.63A2.776 2.776 0 0 1 23.041 38.647 2.77 2.77 0 0 1 22.026 42.441L8.333 50.347 22.026 58.253A2.77 2.77 0 0 1 23.041 62.045 2.78 2.78 0 0 1 20.633 63.435" fill="#ff5db2" data-fill-palette-color="accent"></path><path d="M79.361 66.212A2.776 2.776 0 0 1 77.973 61.031L91.667 53.125 77.973 45.22A2.78 2.78 0 0 1 76.953 41.426 2.78 2.78 0 0 1 80.75 40.409L98.611 50.72A2.78 2.78 0 0 1 98.611 55.531L80.75 65.843C80.312 66.093 79.834 66.212 79.361 66.212" fill="#ff5db2" data-fill-palette-color="accent"></path></svg></g></svg></g></svg></g></svg></g></svg></g><g></g></svg></g><defs></defs></svg><rect width="95.481" height="62.252158518788875" fill="none" stroke="none" visibility="hidden"></rect></g></svg></g></svg>